<svg xmlns="http://www.w3.org/2000/svg" viewBox="0 0 1112 1220" font-family="DejaVu Sans, Arial, Helvetica, sans-serif"><rect width="1112" height="1220" fill="#141418"/><text x="40" y="52" fill="#FFFFFF" font-size="30" font-weight="700">vibevm app icons — colour map</text><text x="40" y="110" fill="#D9A78F" font-size="22" font-weight="600">Graph — greens</text><rect x="40" y="130" width="150" height="84" rx="12" fill="#46E08A" stroke="#FFFFFF" stroke-opacity="0.14" stroke-width="2"/><text x="44" y="240" fill="#E9E9EC" font-size="18">neon</text><text x="44" y="262" fill="#9A9AA4" font-size="15" font-family="monospace">#46E08A</text><rect x="212" y="130" width="150" height="84" rx="12" fill="#5FB584" stroke="#FFFFFF" stroke-opacity="0.14" stroke-width="2"/><text x="216" y="240" fill="#E9E9EC" font-size="18">emerald — vibetree</text><text x="216" y="262" fill="#9A9AA4" font-size="15" font-family="monospace">#5FB584</text><rect x="384" y="130" width="150" height="84" rx="12" fill="#57A07A" stroke="#FFFFFF" stroke-opacity="0.14" stroke-width="2"/><text x="388" y="240" fill="#E9E9EC" font-size="18">jade</text><text x="388" y="262" fill="#9A9AA4" font-size="15" font-family="monospace">#57A07A</text><rect x="556" y="130" width="150" height="84" rx="12" fill="#6BA88A" stroke="#FFFFFF" stroke-opacity="0.14" stroke-width="2"/><text x="560" y="240" fill="#E9E9EC" font-size="18">sage</text><text x="560" y="262" fill="#9A9AA4" font-size="15" font-family="monospace">#6BA88A</text><rect x="728" y="130" width="150" height="84" rx="12" fill="#4E8C6A" stroke="#FFFFFF" stroke-opacity="0.14" stroke-width="2"/><text x="732" y="240" fill="#E9E9EC" font-size="18">pine</text><text x="732" y="262" fill="#9A9AA4" font-size="15" font-family="monospace">#4E8C6A</text><rect x="900" y="130" width="150" height="84" rx="12" fill="#7FA890" stroke="#FFFFFF" stroke-opacity="0.14" stroke-width="2"/><text x="904" y="240" fill="#E9E9EC" font-size="18">greysage</text><text x="904" y="262" fill="#9A9AA4" font-size="15" font-family="monospace">#7FA890</text><rect x="40" y="280" width="150" height="84" rx="12" fill="#3E7D5C" stroke="#FFFFFF" stroke-opacity="0.14" stroke-width="2"/><text x="44" y="390" fill="#E9E9EC" font-size="18">forest</text><text x="44" y="412" fill="#9A9AA4" font-size="15" font-family="monospace">#3E7D5C</text><rect x="212" y="280" width="150" height="84" rx="12" fill="#5C8A5A" stroke="#FFFFFF" stroke-opacity="0.14" stroke-width="2"/><text x="216" y="390" fill="#E9E9EC" font-size="18">moss</text><text x="216" y="412" fill="#9A9AA4" font-size="15" font-family="monospace">#5C8A5A</text><text x="40" y="444" fill="#D9A78F" font-size="22" font-weight="600">Graph — other hues</text><rect x="40" y="464" width="150" height="84" rx="12" fill="#D97757" stroke="#FFFFFF" stroke-opacity="0.14" stroke-width="2"/><text x="44" y="574" fill="#E9E9EC" font-size="18">coral — default</text><text x="44" y="596" fill="#9A9AA4" font-size="15" font-family="monospace">#D97757</text><rect x="212" y="464" width="150" height="84" rx="12" fill="#7EE0B0" stroke="#FFFFFF" stroke-opacity="0.14" stroke-width="2"/><text x="216" y="574" fill="#E9E9EC" font-size="18">mint</text><text x="216" y="596" fill="#9A9AA4" font-size="15" font-family="monospace">#7EE0B0</text><rect x="384" y="464" width="150" height="84" rx="12" fill="#E8B04B" stroke="#FFFFFF" stroke-opacity="0.14" stroke-width="2"/><text x="388" y="574" fill="#E9E9EC" font-size="18">amber</text><text x="388" y="596" fill="#9A9AA4" font-size="15" font-family="monospace">#E8B04B</text><rect x="556" y="464" width="150" height="84" rx="12" fill="#5AD1E0" stroke="#FFFFFF" stroke-opacity="0.14" stroke-width="2"/><text x="560" y="574" fill="#E9E9EC" font-size="18">cyan</text><text x="560" y="596" fill="#9A9AA4" font-size="15" font-family="monospace">#5AD1E0</text><rect x="728" y="464" width="150" height="84" rx="12" fill="#E8E6E0" stroke="#FFFFFF" stroke-opacity="0.14" stroke-width="2"/><text x="732" y="574" fill="#E9E9EC" font-size="18">mono</text><text x="732" y="596" fill="#9A9AA4" font-size="15" font-family="monospace">#E8E6E0</text><text x="40" y="628" fill="#D9A78F" font-size="22" font-weight="600">Shared tile background (gradient)</text><rect x="40" y="648" width="150" height="84" rx="12" fill="#2A2A32" stroke="#FFFFFF" stroke-opacity="0.14" stroke-width="2"/><text x="44" y="758" fill="#E9E9EC" font-size="18">tile top</text><text x="44" y="780" fill="#9A9AA4" font-size="15" font-family="monospace">#2A2A32</text><rect x="212" y="648" width="150" height="84" rx="12" fill="#161619" stroke="#FFFFFF" stroke-opacity="0.14" stroke-width="2"/><text x="216" y="758" fill="#E9E9EC" font-size="18">tile bottom</text><text x="216" y="780" fill="#9A9AA4" font-size="15" font-family="monospace">#161619</text><text x="40" y="812" fill="#D9A78F" font-size="22" font-weight="600">Disc background options</text><rect x="40" y="832" width="150" height="84" rx="12" fill="#0E3A3A" stroke="#FFFFFF" stroke-opacity="0.14" stroke-width="2"/><text x="44" y="942" fill="#E9E9EC" font-size="18">teal</text><text x="44" y="964" fill="#9A9AA4" font-size="15" font-family="monospace">#0E3A3A</text><rect x="212" y="832" width="150" height="84" rx="12" fill="#1A1A1F" stroke="#FFFFFF" stroke-opacity="0.14" stroke-width="2"/><text x="216" y="942" fill="#E9E9EC" font-size="18">charcoal</text><text x="216" y="964" fill="#9A9AA4" font-size="15" font-family="monospace">#1A1A1F</text><rect x="384" y="832" width="150" height="84" rx="12" fill="#0F1830" stroke="#FFFFFF" stroke-opacity="0.14" stroke-width="2"/><text x="388" y="942" fill="#E9E9EC" font-size="18">navy</text><text x="388" y="964" fill="#9A9AA4" font-size="15" font-family="monospace">#0F1830</text><rect x="556" y="832" width="150" height="84" rx="12" fill="#2A1626" stroke="#FFFFFF" stroke-opacity="0.14" stroke-width="2"/><text x="560" y="942" fill="#E9E9EC" font-size="18">plum</text><text x="560" y="964" fill="#9A9AA4" font-size="15" font-family="monospace">#2A1626</text><rect x="728" y="832" width="150" height="84" rx="12" fill="#241811" stroke="#FFFFFF" stroke-opacity="0.14" stroke-width="2"/><text x="732" y="942" fill="#E9E9EC" font-size="18">espresso</text><text x="732" y="964" fill="#9A9AA4" font-size="15" font-family="monospace">#241811</text><text x="40" y="996" fill="#D9A78F" font-size="22" font-weight="600">Ink</text><rect x="40" y="1016" width="150" height="84" rx="12" fill="#14120E" stroke="#FFFFFF" stroke-opacity="0.14" stroke-width="2"/><text x="44" y="1126" fill="#E9E9EC" font-size="18">node ink</text><text x="44" y="1148" fill="#9A9AA4" font-size="15" font-family="monospace">#14120E</text></svg>
