<svg xmlns="http://www.w3.org/2000/svg" viewBox="0 0 512 512" fill="none">
<defs><linearGradient id="g" x1="0" y1="0" x2="0" y2="1"><stop offset="0" stop-color="#26262E"/><stop offset="1" stop-color="#161619"/></linearGradient><linearGradient id="drop" x1="0" y1="0" x2="0" y2="1"><stop offset="0" stop-color="#D97757" stop-opacity="0"/><stop offset="0.55" stop-color="#D97757" stop-opacity="0.35"/><stop offset="1" stop-color="#D97757" stop-opacity="0.95"/></linearGradient></defs>
<rect x="24" y="24" width="464" height="464" rx="104" fill="url(#g)"/>
<circle cx="283.32" cy="98.82" r="1" fill="#EAE3D8" opacity="0.2747067958582193"/>
<circle cx="69.84" cy="56.78" r="1" fill="#EAE3D8" opacity="0.25237080396618694"/>
<circle cx="87.58" cy="98.04" r="1" fill="#EAE3D8" opacity="0.44539643871830775"/>
<circle cx="408.69" cy="137.22" r="1" fill="#EAE3D8" opacity="0.5157707815873436"/>
<circle cx="170" cy="73.63" r="1" fill="#EAE3D8" opacity="0.4462511134450324"/>
<circle cx="200.49" cy="127.05" r="1" fill="#EAE3D8" opacity="0.46542455801973115"/>
<circle cx="100.54" cy="136.04" r="1" fill="#EAE3D8" opacity="0.4020528306835331"/>
<circle cx="320.2" cy="96.09" r="1" fill="#EAE3D8" opacity="0.2861501968000084"/>
<circle cx="357.29" cy="104.45" r="1" fill="#EAE3D8" opacity="0.2813391335075721"/>
<circle cx="179.7" cy="57.24" r="1" fill="#EAE3D8" opacity="0.2714837701176293"/>
<circle cx="169.28" cy="170.9" r="1" fill="#EAE3D8" opacity="0.37782998241018506"/>
<circle cx="348.65" cy="80.66" r="1" fill="#EAE3D8" opacity="0.3778629629290663"/>
<circle cx="171.18" cy="143.25" r="1" fill="#EAE3D8" opacity="0.25653066745726394"/>
<circle cx="268.29" cy="62.73" r="1" fill="#EAE3D8" opacity="0.316534080542624"/>
<circle cx="220.69" cy="67.37" r="1" fill="#EAE3D8" opacity="0.31011606749380005"/>
<circle cx="158.03" cy="172.08" r="1" fill="#EAE3D8" opacity="0.290685273334384"/>
<circle cx="119.81" cy="150.67" r="1" fill="#EAE3D8" opacity="0.306000596890226"/>
<circle cx="93.71" cy="86.23" r="1" fill="#EAE3D8" opacity="0.5650936798308976"/>
<circle cx="460.22" cy="151.6" r="1" fill="#EAE3D8" opacity="0.29518856685608624"/>
<circle cx="205.27" cy="58.06" r="1" fill="#EAE3D8" opacity="0.522513191041071"/>
<circle cx="111.53" cy="83.63" r="1" fill="#EAE3D8" opacity="0.2986034352099523"/>
<circle cx="336.75" cy="160.12" r="1" fill="#EAE3D8" opacity="0.5886464910698124"/>
<rect x="202.4" y="69.51" width="3" height="40.13" rx="1.5" fill="url(#drop)"/><circle cx="203.9" cy="109.64" r="2.6" fill="#D97757" opacity="1"/>
<rect x="311.57" y="101.15" width="3" height="40.64" rx="1.5" fill="url(#drop)"/><circle cx="313.07" cy="141.79" r="2.6" fill="#D97757" opacity="1"/>
<rect x="269.26" y="113.91" width="3" height="35.87" rx="1.5" fill="url(#drop)"/><circle cx="270.76" cy="149.78" r="2.6" fill="#D97757" opacity="1"/>
<rect x="162.82" y="108.42" width="3" height="27.42" rx="1.5" fill="url(#drop)"/><circle cx="164.32" cy="135.84" r="2.6" fill="#D97757" opacity="1"/>
<circle cx="100.95" cy="73.83" r="5" fill="#D97757" opacity="0.3"/><rect x="99.15" y="31.68" width="3.6" height="42.15" rx="1.8" fill="url(#drop)"/><circle cx="100.95" cy="73.83" r="3.2" fill="#FFFFFF" opacity="1"/>
<rect x="425.09" y="119.83" width="3" height="31.34" rx="1.5" fill="url(#drop)"/><circle cx="426.59" cy="151.17" r="2.6" fill="#D97757" opacity="1"/>
<rect x="124.19" y="91.97" width="3" height="41.67" rx="1.5" fill="url(#drop)"/><circle cx="125.69" cy="133.63" r="2.6" fill="#D97757" opacity="1"/>
<circle cx="393.17" cy="169.63" r="5" fill="#D97757" opacity="0.3"/><rect x="391.37" y="132.71" width="3.6" height="36.93" rx="1.8" fill="url(#drop)"/><circle cx="393.17" cy="169.63" r="3.2" fill="#FFFFFF" opacity="1"/>
<circle cx="357.15" cy="161.05" r="5" fill="#D97757" opacity="0.3"/><rect x="355.35" y="116.19" width="3.6" height="44.86" rx="1.8" fill="url(#drop)"/><circle cx="357.15" cy="161.05" r="3.2" fill="#FFFFFF" opacity="1"/>
<rect x="65.87" y="127.49" width="3" height="25.91" rx="1.5" fill="url(#drop)"/><circle cx="67.37" cy="153.4" r="2.6" fill="#D97757" opacity="1"/>
<rect x="449.54" y="125.06" width="3" height="46.18" rx="1.5" fill="url(#drop)"/><circle cx="451.04" cy="171.23" r="2.6" fill="#D97757" opacity="1"/>
<circle cx="225.5" cy="172.51" r="5" fill="#D97757" opacity="0.3"/><rect x="223.7" y="136.84" width="3.6" height="35.67" rx="1.8" fill="url(#drop)"/><circle cx="225.5" cy="172.51" r="3.2" fill="#FFFFFF" opacity="1"/>
<rect x="289.89" y="77" width="3" height="27.06" rx="1.5" fill="url(#drop)"/><circle cx="291.39" cy="104.05" r="2.6" fill="#D97757" opacity="1"/>
<rect x="248.32" y="123.36" width="3" height="41.83" rx="1.5" fill="url(#drop)"/><circle cx="249.82" cy="165.18" r="2.6" fill="#D97757" opacity="1"/>
<rect x="332.5" y="56.26" width="3" height="29.16" rx="1.5" fill="url(#drop)"/><circle cx="334" cy="85.42" r="2.6" fill="#D97757" opacity="1"/>
<path d="M 160 190 L 252 250 L 160 310" fill="none" stroke="#D97757" stroke-width="30" stroke-linecap="round" stroke-linejoin="round"/>
<rect x="250" y="300" width="96" height="26" rx="8" fill="#D97757"/>
</svg>
