<svg xmlns="http://www.w3.org/2000/svg" viewBox="0 0 512 512" fill="none">
<defs><linearGradient id="g" x1="0" y1="0" x2="0" y2="1"><stop offset="0" stop-color="#26262E"/><stop offset="1" stop-color="#161619"/></linearGradient></defs>
<rect x="24" y="24" width="464" height="464" rx="104" fill="url(#g)"/>
<path d="M 52.98 163.82 A 727 727 0 0 1 86.89 181.1" stroke="#D97757" stroke-width="2" stroke-linecap="round" opacity="0.39" fill="none"/>
<circle cx="86.89" cy="181.1" r="1.6" fill="#E8A085" opacity="0.64"/>
<path d="M 58.58 152.09 A 740 740 0 0 1 110 179.14" stroke="#D97757" stroke-width="2" stroke-linecap="round" opacity="0.26" fill="none"/>
<circle cx="110" cy="179.14" r="1.6" fill="#E8A085" opacity="0.51"/>
<path d="M 50.34 122.96 A 763 763 0 0 1 155.56 180.09" stroke="#D97757" stroke-width="2" stroke-linecap="round" opacity="0.23" fill="none"/>
<circle cx="155.56" cy="180.09" r="1.6" fill="#E8A085" opacity="0.48"/>
<path d="M 59.29 102.87 A 785 785 0 0 1 184.63 173.06" stroke="#D97757" stroke-width="2" stroke-linecap="round" opacity="0.33" fill="none"/>
<circle cx="184.63" cy="173.06" r="1.6" fill="#E8A085" opacity="0.58"/>
<path d="M 49.51 75.79 A 806 806 0 0 1 219.28 171.98" stroke="#D97757" stroke-width="2" stroke-linecap="round" opacity="0.39" fill="none"/>
<circle cx="219.28" cy="171.98" r="1.6" fill="#E8A085" opacity="0.64"/>
<path d="M 54.18 61.49 A 821 821 0 0 1 256.67 181.96" stroke="#D97757" stroke-width="2" stroke-linecap="round" opacity="0.23" fill="none"/>
<circle cx="256.67" cy="181.96" r="1.6" fill="#E8A085" opacity="0.48"/>
<path d="M 108.64 59.65 A 845 845 0 0 1 279.6 169.73" stroke="#D97757" stroke-width="2" stroke-linecap="round" opacity="0.35" fill="none"/>
<circle cx="279.6" cy="169.73" r="1.6" fill="#E8A085" opacity="0.6"/>
<path d="M 161.11 72.45 A 858 858 0 0 1 292.29 163.39" stroke="#D97757" stroke-width="2" stroke-linecap="round" opacity="0.41" fill="none"/>
<circle cx="292.29" cy="163.39" r="1.6" fill="#E8A085" opacity="0.66"/>
<path d="M 179 59.63 A 878 878 0 0 1 344.38 183.12" stroke="#D97757" stroke-width="2" stroke-linecap="round" opacity="0.32" fill="none"/>
<path d="M 215.42 56.99 A 899 899 0 0 1 354.63 163.93" stroke="#D97757" stroke-width="2" stroke-linecap="round" opacity="0.38" fill="none"/>
<path d="M 260.53 62.63 A 919 919 0 0 1 389.83 170.17" stroke="#D97757" stroke-width="2" stroke-linecap="round" opacity="0.33" fill="none"/>
<path d="M 269.02 50.27 A 934 934 0 0 1 417.5 177.08" stroke="#D97757" stroke-width="2" stroke-linecap="round" opacity="0.26" fill="none"/>
<circle cx="417.5" cy="177.08" r="1.6" fill="#E8A085" opacity="0.51"/>
<path d="M 323.8 59.17 A 959 959 0 0 1 452.68 178.3" stroke="#D97757" stroke-width="2" stroke-linecap="round" opacity="0.35" fill="none"/>
<circle cx="452.68" cy="178.3" r="1.6" fill="#E8A085" opacity="0.6"/>
<path d="M 353.59 62.28 A 975 975 0 0 1 464.57 167.6" stroke="#D97757" stroke-width="2" stroke-linecap="round" opacity="0.42" fill="none"/>
<circle cx="464.57" cy="167.6" r="1.6" fill="#E8A085" opacity="0.67"/>
<path d="M 387.5 61.88 A 997 997 0 0 1 463.2 133.71" stroke="#D97757" stroke-width="2" stroke-linecap="round" opacity="0.37" fill="none"/>
<circle cx="463.2" cy="133.71" r="1.6" fill="#E8A085" opacity="0.62"/>
<path d="M 420.51 64.22 A 1017 1017 0 0 1 459.13 100.87" stroke="#D97757" stroke-width="2" stroke-linecap="round" opacity="0.35" fill="none"/>
<circle cx="459.13" cy="100.87" r="1.6" fill="#E8A085" opacity="0.6"/>
<path d="M 210.31 64.42 A 890 890 0 0 1 287.94 118.67" stroke="#D97757" stroke-width="7" stroke-linecap="round" opacity="0.2" fill="none"/>
<path d="M 210.31 64.42 A 890 890 0 0 1 287.94 118.67" stroke="#EAE3D8" stroke-width="3.4" stroke-linecap="round" opacity="0.95" fill="none"/>
<circle cx="287.94" cy="118.67" r="3" fill="#FFFFFF" opacity="1"/>
<path d="M 247.78 52.83 A 920 920 0 0 1 306.41 95.03" stroke="#D97757" stroke-width="7" stroke-linecap="round" opacity="0.2" fill="none"/>
<path d="M 247.78 52.83 A 920 920 0 0 1 306.41 95.03" stroke="#EAE3D8" stroke-width="3.4" stroke-linecap="round" opacity="0.95" fill="none"/>
<circle cx="306.41" cy="95.03" r="3" fill="#FFFFFF" opacity="1"/>
<path d="M 372 114 Q 380 152 418 160 Q 380 168 372 206 Q 364 168 326 160 Q 364 152 372 114 Z" fill="#D97757"/>
<path d="M 160 190 L 252 250 L 160 310" fill="none" stroke="#D97757" stroke-width="30" stroke-linecap="round" stroke-linejoin="round"/>
<rect x="250" y="300" width="96" height="26" rx="8" fill="#D97757"/>
</svg>
