<svg xmlns="http://www.w3.org/2000/svg" viewBox="0 0 512 512" fill="none">
<defs><linearGradient id="g" x1="0" y1="0" x2="0" y2="1"><stop offset="0" stop-color="#26262E"/><stop offset="1" stop-color="#161619"/></linearGradient><linearGradient id="drop" x1="0" y1="0" x2="0" y2="1"><stop offset="0" stop-color="#D97757" stop-opacity="0"/><stop offset="0.55" stop-color="#D97757" stop-opacity="0.35"/><stop offset="1" stop-color="#D97757" stop-opacity="0.95"/></linearGradient></defs>
<rect x="24" y="24" width="464" height="464" rx="104" fill="url(#g)"/>
<circle cx="234.56" cy="101.1" r="1" fill="#EAE3D8" opacity="0.378745001135394"/>
<circle cx="195.79" cy="73.32" r="1" fill="#EAE3D8" opacity="0.3489371508010663"/>
<circle cx="326.95" cy="51.28" r="1" fill="#EAE3D8" opacity="0.5273167193285189"/>
<circle cx="410.84" cy="93.35" r="1" fill="#EAE3D8" opacity="0.22189434019383045"/>
<circle cx="362.86" cy="51.28" r="1" fill="#EAE3D8" opacity="0.2569392469129525"/>
<circle cx="188.77" cy="101.05" r="1" fill="#EAE3D8" opacity="0.5261565928347409"/>
<circle cx="78.01" cy="127.32" r="1" fill="#EAE3D8" opacity="0.28937539625912906"/>
<circle cx="368.26" cy="97.07" r="1" fill="#EAE3D8" opacity="0.5332142818369903"/>
<circle cx="317.87" cy="159.52" r="1" fill="#EAE3D8" opacity="0.29092895141802727"/>
<circle cx="140.94" cy="56.06" r="1" fill="#EAE3D8" opacity="0.4269552734214812"/>
<circle cx="146.37" cy="68.53" r="1" fill="#EAE3D8" opacity="0.40573650918668136"/>
<circle cx="169.99" cy="56.18" r="1" fill="#EAE3D8" opacity="0.5317955001955852"/>
<circle cx="283.17" cy="143.46" r="1" fill="#EAE3D8" opacity="0.4713737851125188"/>
<circle cx="323.24" cy="85.78" r="1" fill="#EAE3D8" opacity="0.3671755651710555"/>
<circle cx="294.53" cy="50.03" r="1" fill="#EAE3D8" opacity="0.3400574693456292"/>
<circle cx="140.18" cy="98.16" r="1" fill="#EAE3D8" opacity="0.2328860606183298"/>
<circle cx="296.43" cy="52.11" r="1" fill="#EAE3D8" opacity="0.33823733349563556"/>
<circle cx="253.63" cy="59.54" r="1" fill="#EAE3D8" opacity="0.32817045514238996"/>
<circle cx="250.82" cy="91.97" r="1" fill="#EAE3D8" opacity="0.4805190212093294"/>
<circle cx="417.59" cy="97.87" r="1" fill="#EAE3D8" opacity="0.3895034359418787"/>
<circle cx="302.11" cy="113.08" r="1" fill="#EAE3D8" opacity="0.4526125345611945"/>
<circle cx="160.66" cy="99.01" r="1" fill="#EAE3D8" opacity="0.2899096229695715"/>
<circle cx="278.44" cy="58.99" r="1" fill="#EAE3D8" opacity="0.2722017595078796"/>
<circle cx="275.5" cy="121.32" r="1" fill="#EAE3D8" opacity="0.5317570054437966"/>
<rect x="270.87" y="29.22" width="3" height="29.37" rx="1.5" fill="url(#drop)"/><circle cx="272.37" cy="58.59" r="2.6" fill="#D97757" opacity="1"/>
<rect x="442.1" y="62.02" width="3" height="32.05" rx="1.5" fill="url(#drop)"/><circle cx="443.6" cy="94.06" r="2.6" fill="#D97757" opacity="1"/>
<rect x="309.95" y="52.8" width="3" height="27.24" rx="1.5" fill="url(#drop)"/><circle cx="311.45" cy="80.03" r="2.6" fill="#D97757" opacity="1"/>
<rect x="184.58" y="32.89" width="3" height="27.53" rx="1.5" fill="url(#drop)"/><circle cx="186.08" cy="60.42" r="2.6" fill="#D97757" opacity="1"/>
<rect x="353.62" y="37.86" width="3" height="31.02" rx="1.5" fill="url(#drop)"/><circle cx="355.12" cy="68.88" r="2.6" fill="#D97757" opacity="1"/>
<rect x="69.8" y="46.08" width="3" height="33.45" rx="1.5" fill="url(#drop)"/><circle cx="71.3" cy="79.53" r="2.6" fill="#D97757" opacity="1"/>
<rect x="232.53" y="96.54" width="3" height="27.26" rx="1.5" fill="url(#drop)"/><circle cx="234.03" cy="123.8" r="2.6" fill="#D97757" opacity="1"/>
<rect x="121.65" y="58.41" width="3" height="27.44" rx="1.5" fill="url(#drop)"/><circle cx="123.15" cy="85.85" r="2.6" fill="#D97757" opacity="1"/>
<rect x="422.77" y="95.95" width="3" height="27.04" rx="1.5" fill="url(#drop)"/><circle cx="424.27" cy="122.98" r="2.6" fill="#D97757" opacity="1"/>
<rect x="139.52" y="37.12" width="3" height="26.54" rx="1.5" fill="url(#drop)"/><circle cx="141.02" cy="63.67" r="2.6" fill="#D97757" opacity="1"/>
<rect x="176.72" y="103.64" width="3" height="14.61" rx="1.5" fill="url(#drop)"/><circle cx="178.22" cy="118.25" r="2.6" fill="#D97757" opacity="1"/>
<rect x="185.49" y="148.31" width="3" height="18.29" rx="1.5" fill="url(#drop)"/><circle cx="186.99" cy="166.59" r="2.6" fill="#D97757" opacity="1"/>
<rect x="86.62" y="47.16" width="3" height="30.51" rx="1.5" fill="url(#drop)"/><circle cx="88.12" cy="77.67" r="2.6" fill="#D97757" opacity="1"/>
<rect x="71.91" y="93.97" width="3" height="25.51" rx="1.5" fill="url(#drop)"/><circle cx="73.41" cy="119.49" r="2.6" fill="#D97757" opacity="1"/>
<circle cx="242" cy="90.97" r="5" fill="#D97757" opacity="0.3"/><rect x="240.2" y="66.72" width="3.6" height="24.25" rx="1.8" fill="url(#drop)"/><circle cx="242" cy="90.97" r="3.2" fill="#FFFFFF" opacity="1"/>
<rect x="199.31" y="85.05" width="3" height="27.64" rx="1.5" fill="url(#drop)"/><circle cx="200.81" cy="112.69" r="2.6" fill="#D97757" opacity="1"/>
<rect x="395.65" y="89.45" width="3" height="16.21" rx="1.5" fill="url(#drop)"/><circle cx="397.15" cy="105.66" r="2.6" fill="#D97757" opacity="1"/>
<rect x="234.27" y="133.1" width="3" height="16.99" rx="1.5" fill="url(#drop)"/><circle cx="235.77" cy="150.09" r="2.6" fill="#D97757" opacity="1"/>
<rect x="399.8" y="47.73" width="3" height="27.76" rx="1.5" fill="url(#drop)"/><circle cx="401.3" cy="75.49" r="2.6" fill="#D97757" opacity="1"/>
<rect x="348.96" y="80.71" width="3" height="15.57" rx="1.5" fill="url(#drop)"/><circle cx="350.46" cy="96.28" r="2.6" fill="#D97757" opacity="1"/>
<rect x="159.04" y="80.52" width="3" height="24.1" rx="1.5" fill="url(#drop)"/><circle cx="160.54" cy="104.61" r="2.6" fill="#D97757" opacity="1"/>
<rect x="201.04" y="41.57" width="3" height="22.47" rx="1.5" fill="url(#drop)"/><circle cx="202.54" cy="64.04" r="2.6" fill="#D97757" opacity="1"/>
<path d="M 372 114 Q 380 152 418 160 Q 380 168 372 206 Q 364 168 326 160 Q 364 152 372 114 Z" fill="#D97757"/>
<path d="M 160 190 L 252 250 L 160 310" fill="none" stroke="#D97757" stroke-width="30" stroke-linecap="round" stroke-linejoin="round"/>
<rect x="250" y="300" width="96" height="26" rx="8" fill="#D97757"/>
</svg>
