<svg xmlns="http://www.w3.org/2000/svg" viewBox="0 0 512 512" fill="none">
<defs><linearGradient id="g" x1="0" y1="0" x2="0" y2="1"><stop offset="0" stop-color="#26262E"/><stop offset="1" stop-color="#161619"/></linearGradient></defs>
<rect x="24" y="24" width="464" height="464" rx="104" fill="url(#g)"/>
<path d="M 325.14 74.48 A 16 16 0 1 1 325.27 93.69" stroke="#D97757" stroke-width="2.4" stroke-linecap="round" opacity="0.52" fill="none"/>
<path d="M 316.3 67.26 A 27.4 27.4 0 1 1 311.92 92.4" stroke="#EAE3D8" stroke-width="2.4" stroke-linecap="round" opacity="0.49" fill="none"/>
<path d="M 365.65 59.11 A 37.2 37.2 0 1 1 307.43 105.2" stroke="#E7C98B" stroke-width="2.4" stroke-linecap="round" opacity="0.45" fill="none"/>
<path d="M 378.8 58.84 A 47.93 47.93 0 1 1 291.46 95.45" stroke="#9FB6D6" stroke-width="2.4" stroke-linecap="round" opacity="0.39" fill="none"/>
<circle cx="291.46" cy="95.45" r="1.8" fill="#9FB6D6" opacity="0.59"/>
<path d="M 394.13 71.8 A 57.44 57.44 0 1 1 281.81 95.89" stroke="#D97757" stroke-width="2.4" stroke-linecap="round" opacity="0.52" fill="none"/>
<path d="M 405.11 83.62 A 67.11 67.11 0 0 1 279.13 116.22" stroke="#EAE3D8" stroke-width="2" stroke-linecap="round" opacity="0.59" fill="none"/>
<circle cx="279.13" cy="116.22" r="1.8" fill="#EAE3D8" opacity="0.79"/>
<path d="M 414.16 69.09 A 77.6 77.6 0 1 1 261.48 96.95" stroke="#D97757" stroke-width="2" stroke-linecap="round" opacity="0.58" fill="none"/>
<path d="M 423.24 67.68 A 86.79 86.79 0 0 1 260.1 122.28" stroke="#EAE3D8" stroke-width="2" stroke-linecap="round" opacity="0.42" fill="none"/>
<path d="M 433.98 98.72 A 97.1 97.1 0 0 1 242.82 103.21" stroke="#E7C98B" stroke-width="2" stroke-linecap="round" opacity="0.62" fill="none"/>
<path d="M 441.35 57.74 A 106.64 106.64 0 0 1 383.54 180.42" stroke="#9FB6D6" stroke-width="2" stroke-linecap="round" opacity="0.62" fill="none"/>
<circle cx="383.54" cy="180.42" r="1.8" fill="#9FB6D6" opacity="0.82"/>
<path d="M 452.57 61.59 A 116.74 116.74 0 0 1 411.5 174.7" stroke="#D97757" stroke-width="2" stroke-linecap="round" opacity="0.57" fill="none"/>
<circle cx="411.5" cy="174.7" r="1.8" fill="#D97757" opacity="0.77"/>
<path d="M 462.53 57.52 A 127.32 127.32 0 0 1 428.28 173.77" stroke="#EAE3D8" stroke-width="2" stroke-linecap="round" opacity="0.53" fill="none"/>
<path d="M 236.23 175.76 A 137.03 137.03 0 0 1 201.27 93.15" stroke="#D97757" stroke-width="2" stroke-linecap="round" opacity="0.3" fill="none"/>
<path d="M 220.06 171.25 A 146.71 146.71 0 0 1 191.52 92.17" stroke="#EAE3D8" stroke-width="2" stroke-linecap="round" opacity="0.5" fill="none"/>
<circle cx="191.52" cy="92.17" r="1.8" fill="#EAE3D8" opacity="0.7"/>
<path d="M 211.24 178.45 A 158.08 158.08 0 0 1 180.03 89.83" stroke="#E7C98B" stroke-width="2" stroke-linecap="round" opacity="0.53" fill="none"/>
<path d="M 198.24 174.64 A 166.58 166.58 0 0 1 171.66 92.93" stroke="#9FB6D6" stroke-width="2" stroke-linecap="round" opacity="0.65" fill="none"/>
<path d="M 184.71 172.69 A 177.1 177.1 0 0 1 161.56 99.31" stroke="#D97757" stroke-width="2" stroke-linecap="round" opacity="0.51" fill="none"/>
<circle cx="161.56" cy="99.31" r="1.8" fill="#D97757" opacity="0.71"/>
<circle cx="338" cy="84" r="2.6" fill="#FFFFFF" opacity="1"/>
<path d="M 160 190 L 252 250 L 160 310" fill="none" stroke="#D97757" stroke-width="30" stroke-linecap="round" stroke-linejoin="round"/>
<rect x="250" y="300" width="96" height="26" rx="8" fill="#D97757"/>
</svg>
